<svg width="150" height="150" viewBox="0 0 150 150" fill="none" xmlns="http://www.w3.org/2000/svg">
<path d="M49.3849 35.455C51.0249 35.65 52.5899 35.37 54.2099 35.465C55.9349 35.565 57.5949 36.535 59.0549 37.39C60.1749 38.05 61.2299 38.75 62.3299 39.395C61.2599 37.965 60.1899 36.54 59.1199 35.11C57.4949 32.94 54.9249 33.355 53.7849 34.965C53.0949 34.19 52.4099 33.415 51.7199 32.64C50.0149 30.72 46.7549 32.025 46.2349 34.215C45.9099 33.89 45.5899 33.565 45.2649 33.24C44.2599 32.23 42.5949 32.015 41.3649 32.735C41.0549 32.915 40.7599 33.18 40.5149 33.485C43.3749 34.485 46.4299 35.105 49.3849 35.455ZM64.4199 40.48C65.5799 40.995 66.7499 41.49 67.9249 41.96C67.6049 41.525 67.2849 41.085 66.9749 40.64C65.8499 39.02 63.9649 38.815 62.6149 39.555C63.1949 39.885 63.7899 40.2 64.4199 40.48Z" fill="#D6D6E9"/>
<path d="M137.22 129.4C136.465 126.82 135.495 124.31 134.92 121.685C134.41 120.745 133.87 119.82 133.255 118.935C132.84 118.335 133.01 117.755 133.42 117.385C133.108 116.581 132.817 115.77 132.55 114.95C131.74 114.66 130.795 114.67 130.08 114.985C129.8 115.11 129.55 115.26 129.33 115.43C128.54 114.775 127.56 114.455 126.455 114.755C126.045 114.865 125.65 115.08 125.295 115.365C124.585 113.845 123.865 112.325 123.135 110.81C120.801 105.27 118.241 99.8292 115.46 94.5C114.715 93.075 112.82 92.575 111.395 93.18C110.55 91.88 109.7 90.59 108.84 89.3C109.64 88.39 109.97 87.07 109.24 85.68C107.925 83.175 106.57 80.685 105.185 78.215C105.54 77.78 105.77 77.25 105.8 76.645C106.43 75.88 106.63 74.85 106.45 73.745C106.4 73.45 106.355 73.16 106.305 72.865C108.005 72.5 109.485 70.695 108.985 68.8C108.8 68.095 108.61 67.395 108.425 66.69C108.005 63.815 107.31 61.03 106.21 58.32C105.565 56.74 104.12 55.615 102.345 56.05C101.59 54.345 100.825 52.645 100.045 50.95L99.8199 50.26C100.385 49.48 100.55 48.465 100.37 47.465C100.15 46.25 99.9349 45.035 99.7249 43.82C100.93 43.12 101.8 41.59 101.28 40.185C100.76 38.78 100.235 37.38 99.7149 35.975C99.7849 35.94 99.8549 35.905 99.9249 35.865C101.305 35.055 101.7 33.58 101.335 32.175C101.86 31.2 101.78 30.035 101.305 28.99C100.945 28.19 100.58 27.39 100.22 26.59C100.18 26.14 100.04 25.67 99.7649 25.19L98.9499 23.775C98.8999 23.685 98.8399 23.61 98.7799 23.525C96.2249 25.675 92.9599 27.31 91.1199 30.13C91.0299 30.27 90.9449 30.41 90.8599 30.555C90.9899 30.91 91.1249 31.265 91.2549 31.62C90.9499 31.575 90.6349 31.58 90.3199 31.63C88.8449 35.065 89.1699 39.305 89.7749 42.85C90.0649 44.54 87.4799 45.26 87.1899 43.565C86.4949 39.505 86.1749 34.905 87.6999 30.97C87.6649 30.92 87.6349 30.865 87.5999 30.815C87.1753 30.15 86.5342 29.6519 85.7849 29.405C85.7449 29.445 85.7049 29.49 85.6699 29.53C85.3849 30.155 85.1049 30.785 84.8449 31.425C84.8549 31.475 84.8649 31.52 84.8699 31.57C85.0549 33.72 84.8699 35.845 84.6599 37.985L84.7349 38.135C84.7899 38.235 84.8449 38.34 84.9049 38.44C85.3899 39.275 84.8799 40.065 84.1899 40.34C84.1599 40.455 84.1099 40.56 84.0499 40.655C84.4199 40.765 84.7249 41.055 84.8299 41.565C84.9249 42.05 85.0299 42.51 85.0949 43C85.2599 44.255 83.5649 44.625 82.8049 43.95C82.0799 43.305 81.4099 42.605 80.7449 41.9C79.1299 41.18 77.0949 41.83 76.3799 43.36C76.0299 42.92 75.6799 42.485 75.3299 42.045C74.3099 40.765 72.5599 40.88 71.2949 41.695C70.8749 41.635 70.447 41.6626 70.0382 41.7762C69.6295 41.8898 69.2487 42.0869 68.9199 42.355C69.5999 42.62 70.2799 42.875 70.9649 43.12C75.2999 44.655 79.7799 45.725 84.3949 45.76C86.1249 45.775 86.1199 48.455 84.3949 48.445C79.4649 48.405 74.6449 47.28 70.0199 45.625C68.0549 44.92 66.1199 44.13 64.2049 43.3C62.2249 42.445 60.4949 41.46 58.6749 40.305C57.3399 39.46 55.5949 38.195 53.9599 38.145C52.4199 38.1 50.9449 38.325 49.3949 38.145C45.6249 37.705 41.8399 36.87 38.2899 35.5C35.6999 34.505 32.0149 31.665 29.7049 34.46C29.5799 34.615 29.4399 34.72 29.2999 34.795C31.4799 36.8 33.6749 38.785 35.8799 40.765L42.0399 48.065C42.7999 48.965 43.8599 49.18 44.8449 48.95L46.7599 50.715C47.1249 51.05 47.5149 51.28 47.9099 51.425L56.3799 58.86C55.6849 59.565 55.2849 60.555 55.4899 61.645C54.9149 61.61 54.3199 61.735 53.7499 62.065C52.0999 63.03 51.8999 64.865 52.5949 66.47C53.3349 68.185 54.0499 69.91 54.7499 71.645C54.6549 71.57 54.5649 71.495 54.4699 71.42C51.8599 69.36 48.6049 71.275 49.0899 74.555C49.2399 75.565 49.3699 76.58 49.4899 77.595C49.3799 77.635 49.2699 77.675 49.1649 77.725C48.6899 77.235 48.2199 76.745 47.7449 76.25C45.7949 74.225 42.7249 75.77 42.2849 78.03C41.3449 79.305 41.5599 81.02 42.5999 82.21C44.1149 83.94 45.6299 85.67 47.1499 87.4C47.3849 87.665 47.6349 87.875 47.8999 88.03L51.2399 91.7C52.4699 93.055 54.4749 92.825 55.6899 91.74C56.3649 92.54 57.0349 93.345 57.7099 94.145C58.4699 95.05 59.4499 95.29 60.3699 95.1L60.6999 95.49C61.7249 96.7 63.7649 96.665 64.9299 95.74C66.0999 94.81 66.4399 93.365 65.9399 92.01C66.4399 92.05 66.9549 91.975 67.4399 91.76C68.4249 92.84 69.4149 93.92 70.3999 95C71.7549 96.48 73.6749 96.12 74.8499 94.98C75.2549 94.965 75.6499 94.865 76.0199 94.695C76.9949 95.975 77.9599 97.265 78.9099 98.565C79.8549 99.86 81.3649 100.57 82.9299 99.88C83.5249 99.615 84.0849 99.13 84.4599 98.54C86.7799 101.2 89.0599 103.895 91.2899 106.635C91.8949 107.38 92.8999 107.645 93.8499 107.54C95.7999 111.11 97.6799 114.715 99.5049 118.35C99.0049 119.075 98.7899 119.97 99.0849 120.875C99.4499 122.005 99.8549 123.12 100.29 124.225C99.7399 125.1 99.5899 126.23 100.215 127.4C100.235 127.44 100.26 127.475 100.28 127.515C102.32 126.855 104.535 126.685 106.66 126.67C109.005 126.655 111.465 126.825 113.755 127.445C115.68 127.675 117.61 127.89 119.545 127.91C120.315 127.915 120.74 128.435 120.825 129.015C122.53 128.895 124.23 128.82 125.935 128.82C129.26 128.495 132.585 128.13 135.935 128.345C136.75 128.4 137.17 128.95 137.22 129.54H137.28C137.26 129.495 137.245 129.45 137.23 129.4H137.22ZM67.6899 67.21C67.9699 66.87 68.1749 66.475 68.2899 66.055H68.2999C68.3599 66.255 68.4299 66.45 68.5149 66.645C68.6699 66.99 68.8199 67.335 68.9699 67.675C68.5599 67.41 68.1249 67.26 67.6849 67.21H67.6899ZM67.2499 55.565C66.7599 55.17 66.2549 54.79 65.7449 54.415C64.4799 53.135 62.4149 53.43 61.2349 54.585L54.8449 48.975C55.5099 48.7 56.0899 48.24 56.4499 47.65C57.3549 48.67 58.2599 49.685 59.1599 50.705C60.1399 51.805 61.9249 51.89 63.1199 51.14C63.6049 51.79 64.0949 52.44 64.5799 53.09C65.5899 54.435 67.2549 55.145 68.8299 54.325C68.8599 54.4 68.8849 54.48 68.9199 54.555C69.0449 54.855 69.1749 55.16 69.2999 55.46C68.6349 55.235 67.9099 55.3 67.2449 55.565H67.2499ZM27.7999 32.555C30.3249 29.5 33.7499 30.6 36.8299 31.95C35.6499 30.72 33.9649 29.96 32.5049 29.095C29.9549 27.595 27.1149 30.28 27.7049 32.68C27.7349 32.635 27.7649 32.595 27.7999 32.55V32.555Z" fill="#EF5F39"/>
<path d="M105.295 129.62C101.785 120.475 97.0399 111.875 91.1149 104.065C90.9799 103.89 90.825 103.76 90.66 103.67C90.92 102.99 90.7049 102.17 89.7949 102.005C87.5099 101.59 85.2249 101.18 82.9449 100.765C83.3149 100.075 83.1549 99.08 82.1799 98.81C81.2249 98.55 80.2699 98.29 79.3199 98.03C81.2799 95 81.8099 91.195 80.7299 87.795C81.3999 87.88 82.0749 87.965 82.7449 88.04C83.8999 88.17 84.2649 87 83.8699 86.155C83.8949 86.11 83.9199 86.065 83.9449 86.015C85.3049 83.1 86.0249 80.025 86.0399 76.8C86.0399 76.28 85.7999 75.92 85.4599 75.71C85.5049 75.56 85.5299 75.405 85.5299 75.245C86.0849 75.79 87.1399 75.925 87.7199 75.085C89.6899 72.22 90.7299 68.89 90.8099 65.415C90.8249 64.685 90.3549 64.26 89.7999 64.15C90.8299 63.86 91.3849 62.325 90.1849 61.73C85.3299 59.315 80.2049 57.455 74.9049 56.285C72.9149 55.845 70.8999 55.5 68.8799 55.245C68.9799 54.635 68.7199 53.965 67.9599 53.745C60.7549 51.65 53.7499 48.95 46.8499 46.015C43.7749 44.71 40.6599 43.445 37.6899 41.915C35.2299 40.645 32.7549 39.125 31.0449 36.895C30.2899 35.91 29.0149 34.015 29.3699 32.685C29.6599 31.615 31.0249 31.44 31.9599 31.41C33.4149 31.365 34.8099 31.72 36.2249 32.02C45.2499 33.94 54.1537 36.3909 62.8899 39.36C70.72 42.0227 78.4041 45.097 85.91 48.57C86.69 48.93 87.4199 48.53 87.7599 47.955C88.1649 47.67 88.4349 47.18 88.3099 46.565C86.8799 39.375 86.3999 30.55 92.4549 25.225C93.7299 24.105 95.6449 22.805 97.4199 23.225C99.2599 23.66 100.31 25.495 100.73 27.2C101.685 31.1 100.95 35.735 99.9849 39.56C98.9499 43.665 97.0349 47.84 99.0499 51.96C99.8099 53.51 102.12 52.155 101.365 50.605C100.295 48.42 100.945 45.94 101.58 43.72C102.24 41.42 102.915 39.155 103.275 36.785C103.9 32.695 104.545 27.28 102.11 23.62C101.11 22.11 99.5699 20.885 97.7599 20.555C95.7299 20.185 93.7249 21.02 92.0699 22.15C88.8649 24.34 86.6999 27.75 85.5999 31.43C84.2449 35.97 84.5699 40.77 85.3749 45.39C71.0799 38.92 56.1699 33.835 40.8749 30.3C37.7399 29.575 34.2349 28.38 30.9799 28.81C27.9399 29.215 26.0449 31.535 26.8949 34.62C28.6699 41.06 35.7699 44.09 41.3049 46.51C48.2999 49.57 55.3599 52.495 62.6149 54.88C61.5049 54.955 60.4099 55.145 59.3549 55.515C55.4199 56.905 52.4499 60.75 52.2749 64.955C52.1799 67.28 53.6849 68.46 55.7499 69.065C58.5449 69.885 61.3849 70.58 64.1999 71.335C70.5999 73.05 76.9999 74.765 83.3949 76.485C83.3749 76.58 83.3649 76.68 83.3649 76.79C83.3549 79.52 82.7949 82.17 81.6399 84.65C81.5549 84.835 81.5099 85.015 81.5049 85.19C80.7849 85.1 80.0699 85.005 79.3549 84.905L79.1949 84.67C78.9549 84.335 78.6399 84.155 78.3099 84.1C79.0949 82.845 79.8849 81.585 80.6699 80.33C81.5899 78.86 79.2699 77.515 78.3549 78.975L75.9799 82.77C75.5699 83.425 75.8049 84.055 76.2749 84.425C67.1061 82.8848 58.1352 80.3377 49.5249 76.83C49.4073 76.7792 49.2825 76.7471 49.1549 76.735C49.0776 76.6671 48.9939 76.6068 48.9049 76.555C46.1549 74.99 49.3949 71.53 50.6899 70.25C51.9199 69.035 50.0249 67.14 48.7949 68.355C47.2099 69.92 45.5549 71.675 45.2849 73.985C45.1749 74.935 45.2999 75.885 45.6599 76.73C42.5099 78.785 39.0599 82.175 41.4949 86.155C43.7549 89.855 48.5099 91.85 52.2649 93.59C53.8199 94.31 55.1849 92 53.6199 91.275C50.5749 89.865 47.3699 88.44 44.9149 86.095C43.8049 85.035 42.8949 83.705 43.6649 82.17C44.3549 80.8 45.7799 79.86 47.0249 79.045C47.1599 78.96 47.2649 78.86 47.3549 78.755C47.4199 78.795 47.4849 78.84 47.5549 78.88C47.8099 79.025 48.0599 79.08 48.2949 79.06C48.4299 79.21 48.6049 79.335 48.8199 79.425C58.1049 83.2 67.7799 85.84 77.6699 87.355C79.2049 90.505 78.9449 94.42 76.6649 97.21C76.6449 97.235 76.6299 97.26 76.6099 97.28C75.9349 97.095 75.2599 96.91 74.5849 96.73C75.2749 95.48 75.4649 94.02 75.0199 92.6C74.4999 90.96 71.9099 91.66 72.4349 93.315C72.7149 94.195 72.6049 95.135 71.9849 95.85C71.9449 95.895 71.9099 95.945 71.8749 95.995C67.0599 94.68 62.2499 93.37 57.4349 92.055C57.1499 91.945 56.8599 91.835 56.5749 91.72C56.3099 91.615 56.0699 91.6 55.8599 91.645C54.3849 91.51 53.8299 93.85 55.4049 94.28C55.8449 94.4 56.2849 94.52 56.7199 94.64C63.7149 97.37 70.9049 99.57 78.2349 101.21C78.0299 101.87 78.2599 102.625 79.1349 102.78L88.5949 104.49C88.5299 104.775 88.5899 105.09 88.8299 105.415C94.6049 113.025 99.3149 121.405 102.74 130.325C103.355 131.92 105.95 131.23 105.325 129.61L105.295 129.62ZM70.0699 70.15C67.5649 69.48 65.0649 68.81 62.5599 68.135C61.4399 67.835 60.3149 67.535 59.1949 67.23C58.0899 66.935 56.8249 66.745 55.7749 66.28C54.0349 65.505 55.3349 62.685 56.0649 61.475C57.0149 59.895 58.4999 58.63 60.2599 58.045C62.4399 57.32 64.7949 57.5 67.0449 57.725C69.3599 57.955 71.6649 58.325 73.9399 58.82C79.0999 59.94 84.0899 61.695 88.8199 64.05C88.9249 64.105 89.0299 64.14 89.1349 64.165C88.5999 64.29 88.1349 64.71 88.1149 65.42C88.0449 68.445 87.0999 71.245 85.3899 73.735C85.2449 73.95 85.1699 74.16 85.1549 74.365C85.0049 74.22 84.8149 74.105 84.5649 74.04C79.7299 72.745 74.8999 71.45 70.0649 70.15H70.0699Z" fill="#07182B"/>
<path d="M105.02 51.85C104.35 50.265 102.035 51.63 102.705 53.205C107.31 64.065 109.065 75.98 107.945 87.71C107.78 89.43 110.465 89.415 110.63 87.71C111.8 75.475 109.82 63.15 105.025 51.85H105.02ZM136.895 122.305C127.26 112.735 119.28 101.63 113.255 89.46C112.49 87.91 110.175 89.27 110.94 90.815C117.06 103.18 125.215 114.485 135 124.205C136.225 125.425 138.125 123.525 136.895 122.31V122.305ZM85.2751 65.44C84.7051 63.82 82.1151 64.52 82.6901 66.155C83.1451 67.45 82.8151 68.71 81.7801 69.62C80.4801 70.76 82.3801 72.65 83.6751 71.515C85.3701 70.03 86.0201 67.57 85.2751 65.44ZM28.9351 21.54C27.5001 20.445 26.0701 19.35 24.6351 18.26C24.0551 17.815 23.1401 18.175 22.8001 18.74C22.3901 19.425 22.7101 20.14 23.2801 20.575C24.7151 21.67 26.1451 22.765 27.5801 23.855C28.1601 24.3 29.0751 23.94 29.4151 23.375C29.8251 22.69 29.5051 21.975 28.9351 21.54ZM22.4801 25.555C20.9197 24.9968 19.3113 24.5834 17.6751 24.32C16.9551 24.205 16.2401 24.505 16.0251 25.255C15.8401 25.895 16.2501 26.79 16.9601 26.905C18.6001 27.17 20.2001 27.58 21.7651 28.14C23.3951 28.72 24.0951 26.13 22.4801 25.555ZM20.6451 33.72H14.0051C12.2801 33.72 12.2751 36.405 14.0051 36.405H20.6451C22.3701 36.405 22.3751 33.72 20.6451 33.72ZM113.655 130.255C112.725 124.715 110.265 119.6 106.62 115.335C105.495 114.02 103.605 115.925 104.725 117.23C108.075 121.15 110.22 125.885 111.07 130.965C111.355 132.665 113.94 131.945 113.655 130.25V130.255Z" fill="#07182B"/>
</svg>
