<svg width="266" height="265" viewBox="0 0 266 265" fill="none" xmlns="http://www.w3.org/2000/svg">
<path d="M4.30029 36.2684L37.0605 3.50812L56.4353 22.8828L23.675 55.6431L4.30029 36.2684Z" fill="#07182B"/>
<path d="M212.292 244.259L245.053 211.499L264.427 230.874L231.667 263.634L212.292 244.259Z" fill="#07182B"/>
<path d="M3.62085 103.436L103.719 3.33748L123.094 22.7122L22.9956 122.81L3.62085 103.436Z" fill="#07182B"/>
<path d="M142.631 242.446L242.729 142.347L262.104 161.722L162.006 261.82L142.631 242.446Z" fill="#07182B"/>
<path d="M0.79541 175.278L176.073 -1.75646e-07L195.448 19.3747L20.1701 194.652L0.79541 175.278Z" fill="#EF5F39"/>
<path d="M70.5396 245.024L245.817 69.7466L265.192 89.1213L89.9143 264.399L70.5396 245.024Z" fill="#EF5F39"/>
<path d="M10.0398 234.644L235.437 9.24663L254.812 28.6214L29.4145 254.019L10.0398 234.644Z" fill="#508E7B"/>
</svg>
