<svg width="147" height="42" viewBox="0 0 147 42" fill="none" xmlns="http://www.w3.org/2000/svg">
<path d="M47.0312 29C44.125 29 42.8125 27.5312 42.8125 24.3906V14.875H40.5156V12.6094H42.8125V8.40625L46.1406 7.875V12.6094H49.9688V14.875H46.1406V23.7344C46.1406 25.8281 46.6094 26.4531 48.3594 26.4531H49.9688V29H47.0312ZM66.6719 12.6094V29H63.3594V26.9219H63.2031C62.3125 28.25 60.6719 29.3125 58.3125 29.3125C55.0625 29.3125 52.9062 27.1875 52.9062 23.4531V12.6094H56.2031V22.625C56.2031 25.625 57.4062 26.6875 59.3594 26.6875C61.6406 26.6875 63.3281 25.2188 63.3281 21.8594V12.6094H66.6719ZM77.8281 29.4062C73.4375 29.4062 70.2188 26.4062 70.2188 20.8438C70.2188 15.2969 73.4375 12.2969 77.8281 12.2969C81.6875 12.2969 84.75 14.5781 85.0156 18.9062H81.75C81.5625 16.0938 80 14.8906 77.875 14.8906C75.2812 14.8906 73.5156 16.6562 73.5156 20.8438C73.5156 25.0469 75.2812 26.8125 77.875 26.8125C80 26.8125 81.5625 25.6094 81.75 22.7969H85.0156C84.75 27.125 81.6875 29.4062 77.8281 29.4062ZM88.5312 29V6.92188H91.875V29H88.5312ZM110.016 12.6094V29H106.703V26.9219H106.547C105.656 28.25 104.016 29.3125 101.656 29.3125C98.4062 29.3125 96.25 27.1875 96.25 23.4531V12.6094H99.5469V22.625C99.5469 25.625 100.75 26.6875 102.703 26.6875C104.984 26.6875 106.672 25.2188 106.672 21.8594V12.6094H110.016ZM123.109 29.3594C120.609 29.3594 119.109 28.3125 118.125 27.0938H118.031V29H114.75V6.92188H118.094V14.5312H118.188C119.266 13.25 120.703 12.2969 123.125 12.2969C127.562 12.2969 129.812 15.9062 129.812 20.8125C129.812 25.7344 127.547 29.3594 123.109 29.3594ZM122.062 26.7656C124.984 26.7656 126.453 24.7031 126.453 20.7812C126.453 17.0156 124.984 14.9375 122.062 14.9375C119.5 14.9375 117.859 17.125 117.859 20.7812C117.859 24.5938 119.5 26.7656 122.062 26.7656ZM139.078 29.3438C135.891 29.3438 132.344 27.9531 132.344 23.8281H135.641C135.734 26.2344 137.188 26.9688 139.078 26.9688C141 26.9688 142.344 26.1562 142.344 24.4531C142.344 22.5156 140.266 22.1406 138.047 21.6875C135.391 21.1562 132.516 20.4844 132.516 17C132.516 13.7656 135.219 12.2969 138.625 12.2969C142.297 12.2969 145 13.9219 145.062 17.625H141.844C141.844 15.375 140.438 14.6094 138.672 14.6094C136.875 14.6094 135.719 15.4219 135.719 16.7812C135.719 18.4688 137.484 18.875 139.5 19.2969C142.266 19.8594 145.531 20.4531 145.531 24.2656C145.531 27.875 142.406 29.3438 139.078 29.3438Z" fill="white"/>
<path d="M29.3163 20.9296C29.3163 24.4101 26.6315 27.032 24.3499 29.3136C22.0693 31.5941 19.4464 34.28 15.9659 34.28C12.4853 34.28 9.86348 31.5952 7.58188 29.3136C5.30135 27.0331 2.61548 24.4101 2.61548 20.9296C2.61548 17.4491 5.30028 14.8272 7.58188 12.5456C9.86241 10.2651 12.4853 7.57919 15.9659 7.57919C19.4464 7.57919 22.0683 10.264 24.3499 12.5456C26.6304 14.8261 29.3163 17.4491 29.3163 20.9296Z" fill="#EF5F39"/>
</svg>
