<svg width="150" height="150" viewBox="0 0 150 150" fill="none" xmlns="http://www.w3.org/2000/svg">
<path d="M120.76 36.755C119.16 34.13 116.915 32.1 114.215 30.655C114.102 30.5943 113.981 30.5489 113.855 30.52L112.765 29.54C111.69 28.57 110.375 29.915 110.725 31.065C109.905 31.205 109.175 31.95 109.69 32.835C109.805 33.03 109.925 33.225 110.04 33.415C109.105 33.075 107.875 33.88 108.195 34.91L107.845 34.64C107.835 33.615 107.795 32.585 107.72 31.56C107.64 30.425 105.98 30.015 105.34 30.93C104.86 31.62 104.375 32.31 103.895 33C103.835 33.055 103.775 33.11 103.72 33.175L100.61 30.47C99.9651 29.905 99.2751 30.12 98.8751 30.62C98.4101 30.565 97.9001 30.745 97.5701 31.105C97.1351 31.585 96.6951 32.065 96.2601 32.545C95.4601 32.015 94.6501 31.495 93.8401 30.985C92.3901 30.075 90.9101 31.945 92.2101 33.1L92.8901 33.705C91.8301 33 90.7751 32.295 89.7151 31.59C89.7451 31.055 89.7751 30.515 89.7951 29.975C89.8401 28.77 88.2251 27.79 87.4101 28.99C87.2201 29.27 87.0201 29.55 86.8251 29.83C85.7701 29.69 84.6401 30.825 85.4101 31.8C85.3551 31.875 85.3001 31.955 85.2401 32.03C84.2201 31.47 83.2001 30.92 82.1651 30.39C80.8601 29.72 79.7501 31.605 80.6951 32.56C80.0751 32.25 79.4501 31.95 78.8251 31.655C78.9651 30.375 79.1651 29.1 79.4301 27.825C79.7651 26.23 77.5501 25.93 76.8751 27.135C76.2501 28.25 75.6301 29.36 75.0051 30.475C74.6101 30.705 74.3601 31.165 74.3501 31.65C74.0701 32.155 73.7851 32.66 73.5051 33.165C72.4801 32.505 71.4551 31.845 70.4301 31.19C70.2651 29.97 70.0451 28.755 69.7651 27.55C69.5301 26.53 68.0751 25.885 67.3851 26.92C66.9651 27.545 66.5501 28.175 66.1301 28.8C65.5251 28.22 64.2651 28.235 63.8651 29.175C63.4001 30.26 62.9351 31.35 62.4751 32.435L62.4051 32.385C61.2401 31.51 59.4351 33.145 60.5301 34.26L61.3401 35.085C61.2001 35.415 61.0601 35.74 60.9201 36.07C60.1501 36.285 59.6651 37.265 60.1351 38.125C60.1151 38.665 60.4651 39.14 60.9251 39.38C61.0301 39.545 61.1401 39.705 61.2501 39.865L60.9401 41.15C60.4651 41.52 60.2201 42.135 60.5651 42.7C59.7601 46 58.9551 49.305 58.1551 52.605C57.8351 53.925 59.8001 54.605 60.5401 53.59C60.8101 53.22 61.0701 52.85 61.3301 52.475C60.1401 57.035 59.0601 61.62 58.0951 66.23C57.7701 67.77 60.0251 68.205 60.6501 66.92C60.6501 66.915 60.6551 66.905 60.6601 66.9C60.5451 67.52 60.4301 68.145 60.3301 68.77C60.0751 70.35 62.2151 70.715 62.8851 69.46C62.8851 69.46 62.8851 69.455 62.8901 69.45L62.9901 69.58C62.6951 70.77 62.4101 71.965 62.1401 73.165C61.2301 73.31 60.5251 74.31 61.2551 75.245C61.3701 75.39 61.4801 75.535 61.5951 75.685C61.3251 76.97 61.0601 78.255 60.8201 79.55C60.5201 81.145 62.7001 81.455 63.3751 80.24C63.6201 79.805 63.8601 79.37 64.1051 78.935C64.1451 78.99 64.1901 79.045 64.2301 79.095C63.9551 79.915 63.6751 80.735 63.4001 81.55C62.3801 81.69 61.6551 83.025 62.6301 83.835C62.4301 84.43 62.2301 85.025 62.0251 85.62C61.5301 87.09 63.2101 87.99 64.2651 86.995C64.6301 87.395 64.9901 87.795 65.3451 88.2C64.8951 89.545 64.4601 90.895 64.0451 92.25C63.0751 91.5 62.0901 92.32 62.0151 93.29C61.9351 93.375 61.8651 93.475 61.8051 93.59C61.7551 93.56 61.7051 93.535 61.6501 93.51C61.1001 93.04 60.5501 92.57 60.0001 92.095C58.8401 91.105 57.1901 92.79 58.1251 93.97L59.2301 95.36C59.0701 95.58 58.9101 95.8 58.7551 96.02C57.7901 95.2 56.8251 94.38 55.8601 93.555C54.7201 92.585 52.9701 94.29 53.9851 95.43C54.5401 96.055 55.0901 96.685 55.6351 97.315C55.4551 97.33 55.2801 97.38 55.1151 97.48C53.6451 96.04 52.1751 94.595 50.7051 93.155C49.6251 92.095 47.8501 93.885 48.8301 95.03C49.4001 95.695 49.9751 96.36 50.5451 97.03C50.0401 96.79 49.4251 96.845 49.0101 97.43C48.6701 97.915 48.3451 98.405 48.0251 98.905C47.1851 98.31 46.3451 97.72 45.5051 97.125C44.6651 96.53 43.8401 96.95 43.5401 97.635C42.4043 96.7567 41.261 95.8884 40.1101 95.03C38.9451 94.16 37.1451 95.78 38.2351 96.905C40.5351 99.27 42.8801 101.585 45.2751 103.85C44.9986 104.432 44.7352 105.021 44.4851 105.615C43.6301 105.12 42.7751 104.62 41.9201 104.125C40.8601 103.51 40.0651 104.585 40.1751 105.56C38.9651 105.29 38.3101 107.12 39.2151 107.995C40.3201 109.065 41.4401 110.115 42.5701 111.155C42.5051 111.405 42.4401 111.655 42.3801 111.905L42.1051 111.745C40.6351 110.885 39.1801 112.675 40.4751 113.86C40.8851 114.235 41.3001 114.605 41.7201 114.975C41.6651 115.285 41.6151 115.595 41.5701 115.905C41.2201 115.74 40.8701 115.58 40.5201 115.415C40.2401 115.285 39.9451 115.285 39.6751 115.37L39.3251 115.21C37.7601 114.48 36.7451 116.94 38.2901 117.675C38.8951 117.96 39.4901 118.265 40.0751 118.575C43.085 121.454 46.4667 123.918 50.1301 125.9C51.4351 126.61 52.2801 124.945 51.6951 123.91C54.4251 125.18 57.1601 126.45 59.8901 127.725C61.1301 128.3 62.2401 126.71 61.4651 125.675C61.0451 125.12 60.6201 124.57 60.1851 124.025C60.4151 123.765 60.5501 123.435 60.5201 123.1C60.5551 123.07 60.5901 123.04 60.6251 123.005C60.8151 122.81 61.0001 122.61 61.1851 122.415C61.2551 122.425 61.3251 122.43 61.3901 122.43C61.3501 122.96 61.6651 123.425 62.1151 123.655C62.0351 123.815 61.9601 123.98 61.8801 124.14C61.4801 124.96 62.1651 125.845 62.9501 125.99C62.6751 126.585 62.4051 127.185 62.1401 127.785C61.4951 129.265 63.4351 130.15 64.4301 129.12C66.4551 127.015 68.3301 124.79 70.0651 122.45C71.583 120.852 72.8173 119.008 73.7151 116.995C74.1701 115.97 73.0751 114.98 72.1751 115.13C72.3201 114.865 72.4601 114.595 72.5951 114.32C73.2751 112.975 71.1551 111.735 70.3051 112.985C70.2701 113.04 70.2351 113.095 70.2001 113.145C70.7301 112.06 71.2601 110.97 71.7851 109.885C72.5251 109.645 73.0651 108.73 72.6301 107.955C72.6801 107.315 72.1701 106.765 71.5701 106.595C70.9351 105.795 70.2951 104.995 69.6601 104.195C69.6951 104.12 69.7301 104.045 69.7651 103.975L71.0651 105.085C72.3901 106.215 73.9401 104.12 72.6951 102.97C72.1253 102.439 71.5701 101.892 71.0301 101.33L71.5551 100.235C72.9551 100.92 74.3951 101.54 75.8601 102.085C77.1851 102.575 78.1201 101.15 77.4351 100.035C76.3001 98.185 75.0951 96.38 73.8401 94.615C74.7501 94.54 75.4801 93.345 74.8351 92.435C74.554 92.0397 74.2656 91.6496 73.9701 91.265C75.1001 91.565 76.2851 90.32 75.4201 89.205L72.7601 85.77C72.9651 84.905 73.1301 84.03 73.2601 83.145C73.2651 83.105 73.2601 83.07 73.2651 83.03C73.2901 83.045 73.3101 83.06 73.3351 83.075C74.5651 83.86 76.1801 82.47 75.2101 81.2C74.2301 79.92 73.2501 78.635 72.2701 77.355C72.4201 77 72.5701 76.64 72.7251 76.285C72.7901 76.335 72.8551 76.38 72.9151 76.43C74.0951 77.305 75.8201 75.73 74.7901 74.555L73.9251 73.57C74.0551 73.28 74.1851 72.99 74.3201 72.7C74.5901 72.115 74.4201 71.61 74.0651 71.285C74.3601 70.855 74.4151 70.285 73.9851 69.805C73.0551 68.77 72.1401 67.72 71.2401 66.655C71.3901 66.21 71.5401 65.77 71.6901 65.325C71.6901 65.315 71.6901 65.31 71.6951 65.3C72.1251 65.515 72.5551 65.725 72.9901 65.925C74.1601 66.465 75.4751 64.87 74.5651 63.875C72.6651 61.8 70.8551 59.65 69.1451 57.425C69.1451 56.795 68.7251 56.33 68.2051 56.175C68.0001 55.9 67.7901 55.635 67.5901 55.36L73.3351 59.065C74.6301 59.9 76.0351 58.49 75.2101 57.19C73.5401 54.575 71.7601 52.04 69.8751 49.58C71.2151 50.265 72.5151 48.41 71.2951 47.335C70.6567 46.7749 70.0348 46.1963 69.4301 45.6C69.5451 45.52 69.6451 45.42 69.7301 45.305L75.7501 49.725C76.9201 50.585 78.7301 48.97 77.6251 47.85C76.8551 47.065 76.0801 46.285 75.3101 45.5C75.8901 45.95 76.4801 46.385 77.0801 46.81C78.4801 47.8 80.0901 45.735 78.7101 44.695C78.3251 44.405 77.9401 44.115 77.5601 43.825C77.8651 43.905 78.1851 43.875 78.4651 43.68L83.0701 46.59C83.8001 47.05 84.5301 46.81 84.9151 46.31C85.3001 47.08 86.3401 47.395 87.1101 46.55C87.3851 46.245 87.6651 45.94 87.9401 45.64L90.5051 47.29C91.9601 48.225 93.4001 46.345 92.1351 45.175L90.0901 43.28C90.4651 42.87 90.8351 42.46 91.2101 42.05C93.1651 43.455 95.0651 44.94 96.9001 46.505C98.1551 47.58 99.5651 45.785 98.7101 44.6C98.8351 44.57 98.9551 44.515 99.0701 44.435C100.625 45.685 102.21 46.9 103.825 48.075C104.3 48.42 104.79 48.415 105.18 48.215C105.53 48.185 105.86 48.04 106.09 47.765C106.45 47.325 106.815 46.885 107.175 46.45C108.07 47.01 108.97 46.47 109.2 45.71C110.58 46.905 111.935 48.12 113.265 49.37C114.525 50.55 116.13 48.425 114.895 47.255C114.82 47.185 114.745 47.11 114.67 47.04C115.45 46.705 115.905 45.47 115.085 44.67C114.905 44.495 114.725 44.315 114.545 44.14C115.605 43.625 116.425 42.765 116.85 41.575C116.945 41.31 116.955 41.065 116.91 40.84C117.725 40.545 118.31 39.58 117.56 38.82C116.747 37.9966 115.972 37.1374 115.235 36.245C115.445 36.175 115.635 36.05 115.785 35.885L118.865 38.66C120.08 39.755 121.465 37.98 120.74 36.785L120.76 36.755ZM84.2701 37.52C84.9301 37.905 85.5901 38.295 86.2401 38.7C86.1951 38.98 86.1501 39.265 86.1001 39.545C85.4401 38.93 84.7751 38.32 84.1151 37.705C84.1701 37.645 84.2201 37.585 84.2751 37.52H84.2701ZM79.3101 36.885C79.0751 36.735 78.8401 36.585 78.6101 36.435V36.235L79.3151 36.885H79.3101ZM75.9601 34.215L75.9451 34.72C75.8801 34.68 75.8151 34.635 75.7501 34.595C75.8201 34.47 75.8901 34.34 75.9601 34.215ZM66.2801 49.27L65.5301 50.815C65.2451 50.63 64.9551 50.445 64.6701 50.26C64.8701 49.52 65.0801 48.785 65.2851 48.05C65.6201 48.455 65.9551 48.86 66.2801 49.27ZM67.7651 31.395C67.6251 31.76 67.6501 32.195 67.9101 32.585C67.9551 33.025 67.9951 33.46 68.0251 33.9L67.4151 33.515C67.0501 33.285 66.6601 33.24 66.3151 33.325L67.7401 31.195C67.7501 31.265 67.7601 31.33 67.7651 31.4V31.395ZM63.7451 54.465L63.3551 55.27L63.6101 54.265C63.6551 54.33 63.7001 54.4 63.7501 54.465H63.7451ZM66.1151 57.79C65.9951 58.015 65.8751 58.24 65.7551 58.46L65.5901 58.34C65.6851 58.05 65.7801 57.76 65.8801 57.465C65.9601 57.57 66.0351 57.68 66.1151 57.785V57.79ZM71.8001 36.21C71.8001 36.21 71.7801 36.245 71.7701 36.26L70.7901 35.64C70.7901 35.52 70.7901 35.395 70.7801 35.275C71.1201 35.585 71.4601 35.895 71.7951 36.205L71.8001 36.21ZM69.8001 74.055C69.9901 74.195 70.1801 74.34 70.3701 74.48C70.3351 74.54 70.3001 74.6 70.2651 74.665L69.8001 74.06V74.055ZM58.6051 121.105C58.4551 120.99 58.3051 120.88 58.1551 120.765C58.1901 120.705 58.2201 120.645 58.2551 120.585C58.4051 120.69 58.5601 120.785 58.7101 120.89C58.6751 120.965 58.6401 121.035 58.6051 121.11V121.105ZM68.9651 98.985C68.9151 98.93 68.8651 98.87 68.8201 98.815L68.8501 98.755C68.9151 98.795 68.9851 98.83 69.0551 98.87C69.0251 98.91 68.9951 98.95 68.9701 98.985H68.9651ZM53.1001 99.965C52.6951 100.505 52.2901 101.05 51.8851 101.595L50.5851 100.68C50.8251 100.035 51.0701 99.385 51.3101 98.74C51.4151 98.455 51.4151 98.175 51.3401 97.925C51.9251 98.605 52.5101 99.29 53.0951 99.97L53.1001 99.965ZM69.2551 108.43C68.9451 108.865 68.6351 109.3 68.3201 109.73C68.0701 109.345 67.8151 108.965 67.5601 108.58C67.7401 108.205 67.9201 107.825 68.1001 107.45C68.4851 107.775 68.8701 108.105 69.2501 108.43H69.2551ZM72.9001 97.87C71.436 97.1589 70.0122 96.3677 68.6351 95.5C69.0451 94.865 69.4251 94.215 69.7851 93.555C70.8601 94.965 71.9001 96.4 72.9001 97.87ZM71.3451 81.745C71.1801 81.83 71.0301 81.95 70.9051 82.12C70.7551 82.325 70.6101 82.53 70.4651 82.735C70.3901 82.635 70.3101 82.54 70.2351 82.44L70.6701 81.315L71.3451 81.745ZM68.5351 76.79L67.9501 76.415L68.0401 76.145L68.5301 76.79H68.5351ZM69.4051 64.02C69.3601 64.08 69.3151 64.14 69.2751 64.21C69.1401 64.045 69.0051 63.885 68.8751 63.72C69.0501 63.82 69.2301 63.92 69.4051 64.02ZM67.8651 52.31C67.9601 52.09 68.0551 51.875 68.1501 51.655C68.5551 52.19 68.9551 52.725 69.3501 53.27L67.8651 52.31ZM76.4951 42.66C76.5201 42.815 76.5801 42.965 76.6601 43.1C76.5651 43.03 76.4701 42.96 76.3801 42.89C75.5251 42.205 74.6951 41.49 73.8951 40.75L76.4501 42.365L76.4951 42.665V42.66ZM81.3751 41.37L85.1901 43.825L84.9651 44.71C84.9001 44.62 84.8251 44.53 84.7301 44.445C83.6151 43.42 82.4951 42.395 81.3801 41.37H81.3751ZM88.5151 41.045C88.5701 40.775 88.6201 40.51 88.6701 40.24C88.7901 40.32 88.9101 40.405 89.0301 40.485C88.8601 40.675 88.6901 40.86 88.5151 41.05V41.045ZM97.0751 42.945L95.8751 41.82C96.0901 41.975 96.3051 42.13 96.5151 42.285C96.7151 42.455 96.9201 42.62 97.1201 42.785C97.1001 42.84 97.0851 42.89 97.0751 42.945ZM104.255 44.455L104.18 44.835C103.08 43.93 101.965 43.04 100.835 42.175C101.975 42.935 103.115 43.695 104.26 44.455H104.255Z" fill="#508E7B"/>
<path d="M121.385 31.07C121.315 30.555 120.96 30.115 120.27 30.09C101.556 29.3951 82.8593 28.2798 64.195 26.745C62.485 26.605 62.135 29.255 63.855 29.395C82.285 30.91 100.745 32.01 119.225 32.71L117.39 46.97C117.17 48.675 119.82 49.02 120.04 47.31L121.97 32.32C122.045 31.73 121.78 31.305 121.385 31.065V31.07Z" fill="#07182B"/>
<path d="M118.53 48.785C104.68 47.875 90.8399 46.79 77.0149 45.53C76.3849 45.475 75.9399 45.8 75.7149 46.24C74.9449 45.54 73.3099 46.055 73.4499 47.415C74.9549 61.985 75.7049 76.62 75.6849 91.265C75.2249 91.485 74.8849 91.945 74.9649 92.6C75.8749 100.03 75.7999 108.145 73.4049 115.32C71.3799 121.4 67.1499 126.725 60.2899 127.025C56.8749 127.175 53.4849 126.12 50.4449 124.65C47.4499 123.2 44.3349 121.225 42.1749 118.66C39.5999 115.605 39.7599 112.02 40.2049 108.26C40.6349 104.65 41.3149 100.83 43.5599 97.865C47.3699 92.825 55.1849 91.185 60.6399 94.445C61.1049 94.725 61.5899 94.7 61.9849 94.505C62.7799 94.735 63.8949 94.185 63.8499 93.07C63.4199 82.605 63.0499 72.14 62.7349 61.67C62.5799 56.525 62.4399 51.38 62.3099 46.23C62.2449 43.57 62.1799 40.905 62.1249 38.245C62.0999 37.005 62.0699 35.76 62.0449 34.52L61.9999 32.39C61.9949 32.035 61.9849 31.68 61.9799 31.325C61.9899 31.27 61.9949 31.225 61.9999 31.18C62.0299 31.155 62.0599 31.135 62.0899 31.11C62.5199 30.785 62.7849 30.035 62.5049 29.53C61.8949 28.44 60.3599 28.41 59.6249 29.445C59.1249 30.15 59.3199 31.155 59.3349 31.965L59.4099 35.69C59.5049 40.305 59.6149 44.92 59.7349 49.535C59.9749 58.85 60.2599 68.165 60.5899 77.48C60.7599 82.225 60.9399 86.97 61.1299 91.715C55.5449 88.995 48.5399 89.815 43.7299 93.845C40.7549 96.335 39.1449 99.81 38.2799 103.535C37.3499 107.545 36.5199 112.495 37.8549 116.49C39.0699 120.13 42.2799 122.775 45.3799 124.815C48.6699 126.98 52.3099 128.67 56.1999 129.385C59.9049 130.065 63.8649 129.695 67.1949 127.84C70.3049 126.11 72.5999 123.38 74.2349 120.255C76.1449 116.6 77.1049 112.48 77.6149 108.41C77.8749 106.345 78.0299 104.265 78.0849 102.185C78.1499 102.04 78.1899 101.87 78.1949 101.675C78.6499 83.78 77.9849 65.87 76.1899 48.06C76.3249 48.125 76.4849 48.175 76.6699 48.19C90.4949 49.45 104.335 50.53 118.185 51.445C119.895 51.555 120.245 48.91 118.525 48.795L118.53 48.785Z" fill="#07182B"/>
</svg>
